<?xml version="1.0" standalone="no"?>
<!DOCTYPE svg PUBLIC "-//W3C//DTD SVG 20010904//EN"
 "http://www.w3.org/TR/2001/REC-SVG-20010904/DTD/svg10.dtd">
<svg version="1.0" xmlns="http://www.w3.org/2000/svg"
 width="700.000000pt" height="700.000000pt" viewBox="0 0 700.000000 700.000000"
 preserveAspectRatio="xMidYMid meet">
<metadata>
Created by potrace 1.14, written by Peter Selinger 2001-2017
</metadata>
<g transform="translate(0.000000,700.000000) scale(0.100000,-0.100000)"
fill="#000000" stroke="none">
<path d="M2377 5802 c-10 -2 -17 -13 -18 -25 -4 -180 1 -4430 5 -4435 9 -8
575 -9 589 0 7 4 10 325 10 1067 l0 1061 884 0 883 0 1 28 c0 15 1 128 1 252
l0 225 -868 2 c-478 1 -876 2 -885 2 -14 1 -16 65 -16 656 0 591 2 655 16 656
9 0 450 1 981 2 l965 2 0 249 c0 192 -3 250 -12 253 -14 6 -2509 10 -2536 5z"/>
</g>
</svg>
